<?xml version="1.0" standalone="no"?><!DOCTYPE svg PUBLIC "-//W3C//DTD SVG 1.1//EN" "http://www.w3.org/Graphics/SVG/1.1/DTD/svg11.dtd"><svg t="1616898879152" class="icon" viewBox="0 0 1024 1024" version="1.1" xmlns="http://www.w3.org/2000/svg" p-id="8649" xmlns:xlink="http://www.w3.org/1999/xlink" width="200" height="200"><defs><style type="text/css"></style></defs><path d="M508.723405 653.312l-15.36-16.7936c-9.4208-10.4448-231.424-258.4576-231.424-389.12a246.6816 246.6816 0 1 1 493.3632 0c0 131.2768-222.0032 379.2896-231.424 389.12z m0-612.352a206.0288 206.0288 0 0 0-204.8 205.824c0 88.6784 136.6016 266.24 205.824 345.088 69.0176-79.872 204.8-256.4096 204.8-345.088A204.8 204.8 0 0 0 508.723405 40.96z" fill="#666666" p-id="8650"></path><path d="M670.720205 1024a20.48 20.48 0 0 1-10.24-2.8672l-314.9824-181.6576L30.720205 1021.1328A20.48 20.48 0 0 1 0.000205 1003.52V430.08a20.48 20.48 0 0 1 10.24-17.8176l155.648-88.6784a20.54144 20.54144 0 0 1 20.48 35.6352L40.960205 442.368v525.5168l294.2976-169.7792a20.48 20.48 0 0 1 20.48 0l314.9824 181.8624L983.040205 803.4304V273.8176l-130.2528 75.1616a20.48 20.48 0 1 1-20.48-35.4304l160.9728-92.3648a20.48 20.48 0 0 1 20.48 0 20.48 20.48 0 0 1 10.24 17.8176V815.104a20.48 20.48 0 0 1-10.4448 17.8176l-332.8 188.416a21.504 21.504 0 0 1-10.0352 2.6624z" fill="#666666" p-id="8651"></path></svg>